<svg id="ALDI_Logo" data-name="ALDI Logo" xmlns="http://www.w3.org/2000/svg" width="157" height="164.26" viewBox="0 0 157 164.26">
  <g id="Background">
    <rect id="White_Border" data-name="White Border" width="157" height="164.26" fill="#fff"/>
  </g>
  <g id="ALDI_Nord_Logo_2021" data-name="ALDI Nord Logo 2021">
    <g id="Logo">
      <rect id="Rechteck_1923" data-name="Rechteck 1923" width="157" height="164.26" fill="none"/>
      <path id="Pfad_1900" data-name="Pfad 1900" d="M156.632,163.9V5.669H5.669V163.9Zm-6.039-6.027H11.708V11.7H150.593V157.874Z" transform="translate(-2.65 -2.655)" fill="#c51718"/>
      <path id="Pfad_1901" data-name="Pfad 1901" d="M31.181,218.268H154.97v31.646H31.181V218.268Z" transform="translate(-14.575 -102.231)" fill="#202b78"/>
      <path id="Pfad_1902" data-name="Pfad 1902" d="M153.586,249.466V225.353H142.728v24.112Zm-13.3-12.054a12.025,12.025,0,0,0-11.99-12.058H112.252v24.112H128.3a12.023,12.023,0,0,0,11.99-12.054Zm-9.972,0a5.08,5.08,0,0,1-4.907,5.239h-2.325V232.171h2.328a5.078,5.078,0,0,1,4.9,5.238ZM89.655,249.466h20.507V242.5h-9.481V225.353H89.655Zm-12.374,0H88.228L75.856,225.353H64.813L52.441,249.466H63.389l1.164-2.535H76.116Zm-4.412-8.881H67.8l2.47-5.352Z" transform="translate(-24.513 -105.549)" fill="#fff"/>
      <path id="Pfad_1903" data-name="Pfad 1903" d="M141.44,127.627a19.365,19.365,0,0,0,2.483-9.871c-.077-4.05-1.756-6.654-4.051-10.093L106.331,57.391l5.459-8.222L149.123,104.9c3.073,4.583,4.83,8.006,4.953,13.116a22.935,22.935,0,0,1-2.231,9.61ZM98.965,31.181,49.893,104.9c-3.072,4.583-4.83,8.006-4.953,13.116a22.959,22.959,0,0,0,2.23,9.61H57.576a19.364,19.364,0,0,1-2.483-9.871c.078-4.05,1.757-6.654,4.051-10.093l50.715-76.482Zm-30.647,78.38h59.348l-4.054-6.075h-51.3l-2.373,3.552C69.4,107.85,68.838,108.72,68.318,109.561Z" transform="translate(-21.007 -14.604)" fill="#00b6ed"/>
      <path id="Pfad_1904" data-name="Pfad 1904" d="M144.966,127.627c.276-.594.412-.948.625-1.514A21.877,21.877,0,0,0,147.3,118c-.129-5.356-1.994-8.946-5.1-13.574L104.259,47.855l4.389-6.566,41.277,61.8c3.623,5.427,5.322,8.593,5.322,13.633,0,5.743-1.533,8.276-2.7,10.909Zm-23.163,0h9.446a18.657,18.657,0,0,0,2.61-9.854c-.073-3.771-1.608-6.186-3.908-9.631L96.973,58.756l-4.281,6.419,27.964,41.863c2.491,3.729,4.57,7.085,4.756,10.494a13.852,13.852,0,0,1-3.607,10.095ZM79.927,31.181l-47.673,71.9c-3.624,5.426-5.323,8.593-5.325,13.633,0,5.744,1.534,8.274,2.7,10.909h7.615c-.2-.449-.418-.961-.632-1.525A21.951,21.951,0,0,1,35.076,118c.128-5.356,1.994-8.946,5.1-13.575l48.751-73.24Zm23.131,0L52.026,108.143c-2.3,3.444-3.835,5.859-3.908,9.631a18.646,18.646,0,0,0,2.609,9.854h9.649a13.857,13.857,0,0,1-3.607-10.095,12.375,12.375,0,0,1,.442-2.666h64.943a12.717,12.717,0,0,0-1.967-3.842H59.02c.706-1.227,1.633-2.686,2.5-3.986l3.349-5.013h49.344l-2.7-4.047H67.575l44.266-66.8Z" transform="translate(-12.588 -14.604)" fill="#202b78"/>
    </g>
  </g>
</svg>
